<?xml version="1.0" encoding="utf-8"?>
<!-- Generator: Adobe Illustrator 26.0.1, SVG Export Plug-In . SVG Version: 6.00 Build 0)  -->
<svg version="1.2" baseProfile="tiny" id="Слой_1"
	 xmlns="http://www.w3.org/2000/svg" xmlns:xlink="http://www.w3.org/1999/xlink" x="0px" y="0px" viewBox="0 0 66 120"
	 overflow="visible" xml:space="preserve">
<path fill="none" stroke="#000000" stroke-width="4.9894" stroke-miterlimit="10" d="M60.86,101.35"/>
<path fill="#464646" d="M26.24,99.19c-1.03,0-2.01,0.64-2.37,1.67l-4.92,14.03c-0.45,1.29,0.24,2.72,1.54,3.17
	c0.27,0.09,0.55,0.14,0.82,0.14c1.03,0,2.01-0.64,2.37-1.67l4.92-14.03c0.45-1.29-0.24-2.72-1.54-3.17
	C26.79,99.23,26.51,99.19,26.24,99.19L26.24,99.19z"/>
<path fill="#464646" d="M43.16,99.26c-1.03,0-2.01,0.64-2.37,1.67l-4.92,14.03c-0.45,1.29,0.24,2.72,1.54,3.17h0
	c0.27,0.09,0.55,0.14,0.82,0.14c1.03,0,2.01-0.64,2.37-1.67l4.92-14.03c0.45-1.29-0.24-2.72-1.54-3.17v0
	C43.71,99.3,43.43,99.26,43.16,99.26L43.16,99.26z"/>
<g>
	
		<path fill="none" stroke="#464646" stroke-width="4.9894" stroke-linecap="round" stroke-linejoin="round" stroke-miterlimit="10" d="
		M42.59,43.38v32.05h-5.5h-5.5V9.73c0-3.84,2.47-6.99,5.5-6.99h0c3.02,0,5.5,3.15,5.5,6.99v35.83"/>
	<rect x="31.09" y="59.49" fill="#464646" width="12" height="4.98"/>
	<path fill="#464646" d="M57.58,77.93c1.61,0,2.97,1.32,3.02,2.9l-0.49,10.71c-0.3,6.66-1.9,13.1-4.76,19.14l-1.92,4.07H6.62
		l1.72-4.93c2.78-7.95,4.45-16.24,4.98-24.64l0.25-3.94l0.01-0.16v-0.16c0-1.62,1.38-2.99,3.02-2.99H57.58 M57.58,72.94H16.6
		c-4.41,0-8.01,3.59-8.01,7.98l-0.25,3.94c-0.5,7.95-2.08,15.79-4.71,23.31l-3.12,8.92c-0.45,1.29,0.51,2.64,1.89,2.64h52.92
		c0.77,0,1.48-0.45,1.81-1.14l2.73-5.78c3.12-6.6,4.9-13.75,5.23-21.04l0.5-10.86C65.59,76.52,61.99,72.94,57.58,72.94L57.58,72.94z
		"/>
	<polygon fill="#464646" points="62.59,84.88 11.59,84.88 11.59,89.86 62.59,89.86 62.59,84.88 	"/>
</g>
</svg>
