<svg width="48" height="48" viewBox="0 0 48 48" fill="none" xmlns="http://www.w3.org/2000/svg">
<path d="M44.2916 6.28997C43.5716 5.67941 42.4407 5.59205 41.2714 6.06149H41.2695C40.0397 6.55493 6.45893 20.9588 5.09189 21.5473C4.84325 21.6337 2.67173 22.4439 2.89541 24.2487C3.09509 25.8759 4.84037 26.5498 5.05349 26.6276L13.5908 29.5508C14.1572 31.4362 16.2452 38.3924 16.7069 39.8785C16.9949 40.8049 17.4644 42.0221 18.2871 42.2727C19.009 42.5511 19.7271 42.2967 20.1917 41.9319L25.4112 37.0906L33.8372 43.6618L34.0378 43.7818C34.61 44.0353 35.1581 44.162 35.6813 44.162C36.0855 44.162 36.4733 44.0861 36.8439 43.9345C38.1063 43.4161 38.6112 42.2132 38.6641 42.0769L44.9578 9.36293C45.3418 7.61573 44.808 6.72677 44.2916 6.28997ZM21.12 30.7201L18.24 38.4001L15.36 28.8001L37.44 12.4801L21.12 30.7201Z" fill="white"/>
</svg>
